# xmcd
#
# Track frame offsets:
#  150
#  25707
#  55753
#  80063
#  101249
#  119967
#  139793
#  169062
#  190374
#  231362
#
# Disc length: 3435 seconds
#
# Revision: 0
# Processed by: cddbd v1.5.2PL0 Copyright (c) Steve Scherf et al.
# Submitted via: AltoMP3_Maker 3.0
#
DISCID=900d690a
DTITLE=Jaswant Singh - Feelings - a collection of everlasting love songs
DYEAR=1900
DGENRE=
TTITLE0=Tum itna jo muskara rahe ho
TTITLE1=Hoton se chhun lo tum
TTITLE2=Jhuki jhuki si nazar
TTITLE3=Tum ko dekha to
TTITLE4=Has ke bola karo
TTITLE5=Pyar mujse jo kiya tumne
TTITLE6=Hum to hain pardes mein
TTITLE7=Jawan hai raat sakuia
TTITLE8=Sarakti Jaye Hai - Aahista aahista
TTITLE9=Sare Pind ch Phuade Paye
EXTD=
EXTT0=
EXTT1=
EXTT2=
EXTT3=
EXTT4=
EXTT5=
EXTT6=
EXTT7=
EXTT8=
EXTT9=
PLAYORDER=
